<svg xmlns="http://www.w3.org/2000/svg" width="418.039" height="280.39" viewBox="0 0 418.039 280.39"><defs><style>.a{fill:#211715;}.b{fill:#fff;}.c{fill:none;}.d{fill:#f4b467;}.e{fill:#957f6e;}.f{fill:#7a7473;}.g{fill:#bdbdbd;}.h{fill:#6dbf6b;}.i{fill:#231815;}</style></defs><path class="a" d="M140.392,31.457c8.044-7.64,16.185-15.179,24.272-22.772q2.814-2.643,5.619-5.294c1.872-1.776-.96-4.6-2.828-2.829-8.263,7.838-16.611,15.586-24.916,23.38q-2.492,2.339-4.975,4.687c-1.871,1.776.961,4.6,2.828,2.828Z"/><path class="a" d="M149.1,46.343c12.525-7.006,25.16-13.812,37.736-20.726,2.256-1.24.24-4.7-2.019-3.454-12.576,6.914-25.211,13.72-37.736,20.726-2.247,1.257-.233,4.713,2.019,3.454Z"/><path class="a" d="M153.411,62.765c9.5-1.717,19.02-3.361,28.515-5.117,2.528-.468,1.458-4.323-1.063-3.857-9.5,1.756-19.012,3.4-28.515,5.117-2.529.457-1.458,4.312,1.063,3.857Z"/><path class="b" d="M81.979,222.441c16.9-18.4,36.928-40.585,45.191-50.884a2.008,2.008,0,0,1,1.566-.755h163.3a2,2,0,0,1,1.558.745c12.833,16,54.095,60.709,67.88,75.348a1.628,1.628,0,0,1,.358.873c0,1.813,0,7.305,0,9.868a1.992,1.992,0,0,1-1.986,2.01l-298.911,0a1.993,1.993,0,0,1-1.994-2.013c.025-3.012.009-7.8.014-9.876a1.575,1.575,0,0,1,.338-.864C64.21,241.676,72.615,232.638,81.979,222.441Z"/><path class="a" d="M127.242,174.534c.457-.533.973-1.56,1.659-1.734a3.376,3.376,0,0,1,.752,0h161.1a4.186,4.186,0,0,1,1.279,0c.2.086.466.527.611.692q.757.863,1.517,1.722,1.776,2.014,3.559,4.02c1.714,1.928,4.534-.909,2.829-2.828q-1.784-2.007-3.56-4.02c-1.076-1.22-2.118-2.843-3.725-3.383a4.912,4.912,0,0,0-1.473-.2c-.756-.019-1.515,0-2.271,0H148.188c-6.445,0-12.948-.255-19.389,0-2.079.082-3.133,1.443-4.386,2.906-1.666,1.945,1.151,4.787,2.829,2.828Z"/><path class="a" d="M69.979,249.766l10.5,0,21.3-.007,29.375-.009,35.092-.011,38.115-.012,38.4-.013,36.388-.011,31.635-.01,24.21-.007q7.192,0,14.386,0h1.7c2.574,0,2.578-4,0-4l-11.578,0-22.142.006-29.983.009-35.471.011-38.26.013-38.308.012-36.066.012-31.08.009-23.425.007-13.365,0h-1.42c-2.574,0-2.578,4,0,4Z"/><path class="a" d="M15.733,175.225C10.5,177.85,4.2,180.314,1.458,185.913-.051,189-.148,192.615.112,195.988c.406,5.282,1.115,10.549,1.758,15.806,2,16.348,4.169,32.675,6.347,49q1.091,8.172,2.19,16.343a2.066,2.066,0,0,0,2,2c.969,0,2.144-.922,2-2q-2.471-18.482-4.917-36.965c-1.847-14.109-3.858-28.228-5.22-42.394a29.137,29.137,0,0,1-.036-7.556c1.077-6.44,8.417-8.985,13.518-11.543,2.3-1.154.278-4.606-2.019-3.454Z"/><path class="a" d="M400.284,178.4a69.669,69.669,0,0,1,8.444,4.711,11.71,11.71,0,0,1,4.732,5.694,21.485,21.485,0,0,1,.44,7.832c-.371,5.546-.928,11.082-1.454,16.615q-2.33,24.456-4.966,48.883c-.576,5.4-1.1,10.809-1.814,16.191a2.01,2.01,0,0,0,2,2,2.052,2.052,0,0,0,2-2c1.682-12.653,2.8-25.4,4.1-38.1,1.467-14.335,3.078-28.685,4.1-43.061.221-3.112.4-6.426-.546-9.426-2.107-6.679-9.257-9.9-15.014-12.8-2.294-1.155-4.321,2.294-2.019,3.454Z"/><path class="a" d="M372.784,112.541c-.434,2.077-.937,4.13-1.176,6.242a18.547,18.547,0,0,0,.211,5.347c.555,3.227,1.531,6.361,2.359,9.524.651,2.488,4.51,1.433,3.857-1.063-.784-3-1.694-5.964-2.266-9.011-.614-3.271.169-6.609.872-9.976a2.048,2.048,0,0,0-1.4-2.46,2.021,2.021,0,0,0-2.46,1.4Z"/><path class="c" d="M383.3,115.688c6.424-8.18,9.418-16.4,10.15-23.891,1.678-16.165-5.591-25.771-11.647-29.948a38.9,38.9,0,0,0-28.806-6.589c-8.97,1.37-21.165,6.726-23.991,21.45"/><path class="b" d="M343.19,146.487c1.935-3.059,3.5-8.418,5.265-11.515.549-3.11-.917-5.531-2.006-7.509a1.614,1.614,0,0,0-1.9-1.011c-3.282.827-8.318.256-11.982-1.156a9.307,9.307,0,0,1-5.037-4.809c-1.623-3.2-2.277-9.127-2.371-11.764a7.425,7.425,0,0,0-1.638-3.19c-1.272-1.419-3.338-2.541-2.23-4.949a4.527,4.527,0,0,1,2.1-2.04c4.5-2.334,4.8-9.089,5.028-13.956A36.074,36.074,0,0,1,329,76.71a10.752,10.752,0,0,1,2.254-5.318,81.236,81.236,0,0,0,12.761,12.592c2.591,1.923,11.072,8.087,15.825,9.548l1.789.55a6.747,6.747,0,0,1,2.657-1.941,4.313,4.313,0,0,1,3.835.3c1.683,1.1,2.116,3.393,1.962,5.4a14.431,14.431,0,0,1-8.162,11.722c1.168,3.785,2.391,7.651,2.316,11.565a13.024,13.024,0,0,1-3.011,8.37c-1.183,1.336,3.986,3.314,6.423,3.924,2.9.666,6.246,1.011,8.64-.5a6.37,6.37,0,0,0,.973-.756c.335,3.444-12.212,11.493-13.562,12.191-4.961,2.566-17.162,5.112-20.667,3.067"/><path class="b" d="M316.934,201.544c0-5.293-9.635-7.532-17.231-7.532-8.057,0-18.646,3.056-18.646,8.12,0,5.985,8.977,7.3,17.955,7.3C305.918,209.435,316.934,207.53,316.934,201.544Z"/><path class="a" d="M318.934,201.544c-.189-6.862-9.285-8.654-14.594-9.265-6.722-.773-14.407-.035-20.42,3.278-2.355,1.3-4.591,3.323-4.838,6.152a7.469,7.469,0,0,0,4.062,6.969c3.04,1.748,6.721,2.25,10.157,2.54a53.6,53.6,0,0,0,10.321-.039c5.584-.611,15.137-2.4,15.312-9.635.063-2.575-3.937-2.574-4,0a2.748,2.748,0,0,1-.585,1.67,6.864,6.864,0,0,1-2.4,1.794,23.1,23.1,0,0,1-7.126,2.016,45.458,45.458,0,0,1-7.883.386A37.374,37.374,0,0,1,288,206.335c-1.805-.494-4.189-1.374-4.788-3.194a2.227,2.227,0,0,1,.059-1.826,5.294,5.294,0,0,1,1.922-1.862c4.529-2.877,10.667-3.6,15.915-3.416a31.031,31.031,0,0,1,9.531,1.685,9.87,9.87,0,0,1,3.167,1.74,2.848,2.848,0,0,1,1.132,2.082C315.005,204.113,319.006,204.123,318.934,201.544Z"/><path class="b" d="M313.366,194.9a31.172,31.172,0,0,0,2.747-12.815l-.122-.608c.055-2.523-7.253-3.482-13.554-3.638-7.939-.2-14.921.6-15.347,3.493-.167,6.474.071,10.854,1.95,14.717,2.024,4.161,6.169,6.607,11.676,6.607,6.086,0,9.2-2.147,11.349-5.407A18.052,18.052,0,0,0,313.366,194.9Z"/><path class="a" d="M314.113,182.087A28.262,28.262,0,0,1,312,193.076c-1.082,2.671-2.726,5.232-5.4,6.506a14.506,14.506,0,0,1-10.046.466,9.718,9.718,0,0,1-6.249-6.115c-1.451-4.009-1.312-8.4-1.209-12.6.062-2.575-3.938-2.574-4,0-.195,7.991.136,18.138,8.649,21.9a18.639,18.639,0,0,0,12.982.581,13.982,13.982,0,0,0,7.939-7.026,31.13,31.13,0,0,0,3.453-14.7c-.046-2.571-4.046-2.579-4,0Z"/><path class="a" d="M302.437,179.841a43.085,43.085,0,0,1,9.118.974,9.436,9.436,0,0,1,2.451.922c.393.314,0,.049.036,0l.081.143a.9.9,0,0,1-.087-.821c-.013.115-.195.542.043-.057a1.235,1.235,0,0,1-.241.392c.478-.438-.177.118-.291.215.428-.365-.15.076-.285.154s-.936.442-.507.269a11.958,11.958,0,0,1-1.158.394,19.833,19.833,0,0,1-4.44.742,51.522,51.522,0,0,1-11.31-.437,31.278,31.278,0,0,1-4.773-1.063c-.264-.084-.523-.181-.785-.272-.089-.031-.569-.244-.086-.027-.128-.058-.258-.112-.382-.178-.22-.117-.432-.257-.653-.369-.434-.222.265.291-.152-.141-.246-.255.257.434.1.137-.211-.405.107.428.055.133,0-.011-.019,1.047.057.522-.026.183-.082.141.061.008a3.363,3.363,0,0,1,.848-.5,10.57,10.57,0,0,1,1.621-.484,42.905,42.905,0,0,1,10.677-.65c2.575.058,2.574-3.942,0-4a48.059,48.059,0,0,0-11.587.759c-2.312.52-5.571,1.824-5.628,4.67-.068,3.414,5.123,4.463,7.607,4.969a52.951,52.951,0,0,0,13.863.96c3.419-.22,8.474-.62,10.6-3.788,1.771-2.638-.352-4.9-2.819-5.873-3.718-1.462-8.091-1.589-12.036-1.7C299.862,175.77,299.864,179.77,302.437,179.841Z"/><path class="b" d="M302.614,200.559a4.77,4.77,0,0,1-.129-3.344,10.332,10.332,0,0,1,1.18-2.727,4.1,4.1,0,0,1-2.337-2.024c-.8-1.483.272-3.917,1.949-4.8,1.434-.756,3.347.281,4.914.516.242.036.5.079.766.126-2.217-7.513,8.687-4.584,11.238-3.08,2.168,1.278,7.494,6.71,7.923,8.445l.6,2.417a77.931,77.931,0,0,0-3.391,14.7c-4.31.595-8.813,1.925-10.305,1.691-2.376-.371-4.931-.394-7.139-1.286a10.833,10.833,0,0,1-4.488-3.532c-.8-1.539-1.038-4.332.119-5.816A3.393,3.393,0,0,1,302.614,200.559Z"/><path class="d" d="M322.814,181.1a10.12,10.12,0,0,0,4.386-3.879,67.361,67.361,0,0,0,4.015-8.578l-1.058,5.121c-1.471,7.111.674,14.219,3.014,21.032-1.181-.12-2.392-.244-3.654-.381l-1.239-.094-.16-.652c-.429-1.735-5.755-7.167-7.923-8.445l-3.307-1.949,1-.316A33.992,33.992,0,0,0,322.814,181.1Z"/><path class="d" d="M388.825,234.144c-4.961,0-23.211.395-28.315.395h-9.877l-17-19.069L333.1,194.6c-2.312-6.752-4.4-13.79-2.944-20.83,1.64-7.934,7.036-20.654,12.23-26.9,2.234,2.99,15.972.251,21.314-2.513,1.23-.636,11.757-7.376,13.364-11.173l.341-.807.236.742c1.747,5.5,7.292,11.784,10.51,19.592.472,1.768,1.236,4.585,1.236,4.585,3.343,12.341-.77,26.019-2.556,38.377-.4,2.754-.765,6-1.438,9.187a30.018,30.018,0,0,0,.409,3.786c.879,5.077,4.726,20.373,4.173,25.427Z"/><path class="a" d="M350.633,236.539c10.695,0,21.392-.234,32.087-.346,2.035-.021,4.07-.048,6.1-.049,2.573,0,2.578-4,0-4-10.671,0-21.344.236-32.014.346-2.059.022-4.119.048-6.178.049-2.574,0-2.578,4,0,4Z"/><path class="a" d="M344.722,128.489c.276.5.556.99.816,1.494.133.259.261.521.382.786.031.067.059.136.09.2.105.228-.161-.405-.071-.168.06.158.125.315.181.475.1.29.194.584.27.882.038.152.073.305.1.459.015.078.028.156.043.234.051.274-.017-.1-.02-.175.013.351.062.7.057,1.05,0,.172-.011.343-.025.514-.007.088-.018.175-.025.262-.023.264.079-.519,0-.064a2.172,2.172,0,0,0,.2,1.541,2,2,0,0,0,3.655-.478,10.447,10.447,0,0,0-.368-5.18,24.141,24.141,0,0,0-1.839-3.854,2,2,0,0,0-3.454,2.019Z"/><path class="a" d="M346.728,133.963a51.2,51.2,0,0,0-2.7,6.08q-.306.757-.618,1.513c-.058.14-.155.367-.041.1l-.14.327c-.116.267-.233.534-.354.8a22.979,22.979,0,0,1-1.408,2.694,2.019,2.019,0,0,0,.718,2.736,2.041,2.041,0,0,0,2.736-.717,38.8,38.8,0,0,0,2.828-6.053q.306-.756.612-1.514c.1-.248.2-.5.3-.744,0,.008.2-.484.1-.249s.084-.2.1-.24a28.042,28.042,0,0,1,1.314-2.715,2,2,0,1,0-3.454-2.019Z"/><path class="a" d="M375.713,133.643c1.22,3.733,3.446,7.047,5.5,10.361a55.152,55.152,0,0,1,6.112,12.269c.77,2.447,4.633,1.4,3.857-1.063a57.17,57.17,0,0,0-6.157-12.644c-1.964-3.193-4.276-6.393-5.45-9.987-.8-2.436-4.66-1.393-3.858,1.064Z"/><path class="a" d="M342.025,149.143c2.339,1.282,5.331,1.122,7.9.866a50.3,50.3,0,0,0,10.006-2.043c4.8-1.5,8.742-4.26,12.681-7.333,2.228-1.737,4.989-3.794,6.182-6.448a2.062,2.062,0,0,0-.718-2.736,2.015,2.015,0,0,0-2.736.717c-.837,1.862-2.8,3.412-4.5,4.8a69.84,69.84,0,0,1-6.09,4.391c-3.962,2.581-8.635,3.759-13.278,4.462a28.158,28.158,0,0,1-4.631.343c-.5-.009-1.308-.064-1.555-.106-.276-.048-.543-.117-.813-.188-.436-.115.016.068-.429-.176-2.258-1.237-4.279,2.216-2.018,3.454Z"/><path class="a" d="M369.973,156.438a8.7,8.7,0,0,1,8.667-5.289c4.193.244,6.865,3.8,8.6,7.244,1.162,2.3,4.614.276,3.454-2.019-2.432-4.812-6.389-8.895-12.058-9.225a12.556,12.556,0,0,0-12.121,7.27,2.054,2.054,0,0,0,.718,2.736,2.017,2.017,0,0,0,2.736-.717Z"/><path class="a" d="M387.459,157.82c2.727,10.346.259,21.131-1.58,31.406-.711,3.973-1.2,7.971-1.836,11.954a35.861,35.861,0,0,1-2.608,9.725c-1.583,3.332-4.007,5.764-7.688,6.555-2.516.541-1.451,4.4,1.063,3.857,7.994-1.718,11.269-9.471,12.68-16.738.762-3.928,1.153-7.919,1.822-11.863.956-5.64,2.119-11.244,2.806-16.927a50.644,50.644,0,0,0-.8-19.033c-.655-2.487-4.515-1.432-3.857,1.064Z"/><path class="a" d="M363.608,161.042a120.541,120.541,0,0,0-2.824,36.385c.18,2.553,4.181,2.573,4,0a116.805,116.805,0,0,1,2.682-35.322c.591-2.5-3.265-3.571-3.858-1.063Z"/><path class="a" d="M386.891,234.379a182.241,182.241,0,0,1,2.353,22.534,59.453,59.453,0,0,1-.305,10.895,12.2,12.2,0,0,1-5.394,8.787c-2.13,1.422-.13,4.888,2.019,3.454a16.043,16.043,0,0,0,6.384-7.81,27.843,27.843,0,0,0,1.315-8.6,130.959,130.959,0,0,0-1.163-20.629c-.383-3.241-.825-6.477-1.352-9.7a2.015,2.015,0,0,0-2.46-1.4,2.047,2.047,0,0,0-1.4,2.46Z"/><path class="a" d="M383.422,205.381c.355,5.082,1.777,10.088,2.787,15.066.527,2.6,1.028,5.2,1.413,7.828a24.184,24.184,0,0,1,.354,5.79,2.014,2.014,0,0,0,2,2,2.045,2.045,0,0,0,2-2,26.419,26.419,0,0,0-.4-6.135c-.366-2.65-.859-5.282-1.385-7.905-.967-4.829-2.429-9.717-2.773-14.644-.178-2.553-4.179-2.573-4,0Z"/><path class="a" d="M341.214,145.164c-4.072,4.807-6.873,10.642-9.248,16.433-2.582,6.294-4.829,13.008-4.144,19.9a61.021,61.021,0,0,0,3.351,13.632c.827,2.423,4.692,1.383,3.857-1.063-1.617-4.738-3.2-9.625-3.345-14.671a33.08,33.08,0,0,1,2.165-11.447,82.747,82.747,0,0,1,4.489-10.8,45.723,45.723,0,0,1,5.7-9.158c1.654-1.953-1.162-4.8-2.829-2.828Z"/><path class="a" d="M330.046,193.14c-.527-1.855-2.134-3.463-3.407-4.836a31.02,31.02,0,0,0-5.017-4.535,13.84,13.84,0,0,0-4.446-1.788,14.817,14.817,0,0,0-6.241-.415,5,5,0,0,0-4.269,4.744,2.018,2.018,0,0,0,2,2,2.038,2.038,0,0,0,2-2c.02-.244.016-.242-.01.008a2.866,2.866,0,0,1,.08-.316q.114-.322-.028.053a2.223,2.223,0,0,1,.151-.253c-.407.245.051-.022.172-.124-.4.338.107-.023.218-.08-.453.234.141-.035.261-.067a5.483,5.483,0,0,1,.658-.135c-.488.07.269,0,.357-.006.249-.009.5-.007.748,0s.514.028.77.053c.13.013.26.027.389.043q-.309-.04.054.013.772.128,1.534.314.719.177,1.422.406c.214.07.427.143.639.221.1.037.749.305.231.08a7.858,7.858,0,0,1,.873.431c.166.1.323.207.482.314.091.064.18.13.269.2q-.253-.2.028.024a33.652,33.652,0,0,1,2.661,2.418,37.046,37.046,0,0,1,2.547,2.783c.089.108.176.217.263.327q-.161-.21.045.064c.138.189.275.38.4.577.1.162.186.356.3.509.224.3-.126-.434.008.038.7,2.472,4.563,1.421,3.857-1.063Z"/><path class="a" d="M314.7,187.365c-1.88-.3-3.733-.746-5.612-1.056s-3.706-1.18-5.649-.805a5.9,5.9,0,0,0-3.993,3.8,5.106,5.106,0,0,0,.971,5.325,7.468,7.468,0,0,0,4.739,2.242,2.047,2.047,0,0,0,2.461-1.4,2.026,2.026,0,0,0-1.4-2.46,14.846,14.846,0,0,1-2.041-.464c-.454-.15.323.2-.094-.048-.078-.047-.635-.424-.276-.135-.137-.11-.254-.238-.382-.358-.276-.256.032.128-.156-.2-.077-.117-.148-.238-.215-.361q.145.392.036.077a1.74,1.74,0,0,1-.052-.213q-.045-.225.023.162c.007-.052.037-.655-.006-.353s.084-.306.1-.365c.049-.159.2-.444.045-.144.106-.2.221-.394.339-.59.2-.339-.2.161.108-.131.042-.04.476-.456.29-.3s.283-.175.345-.206c-.323.162.134-.017.216-.03-.43.068.209.039.307.047.143.013.127.01-.049-.009.132.023.262.05.393.08.872.195,1.712.5,2.6.643,1.971.318,3.915.784,5.887,1.1a2.051,2.051,0,0,0,2.46-1.4,2.022,2.022,0,0,0-1.4-2.46Z"/><path class="a" d="M301.785,193.694c-1.758,2.867-2.346,7.038.311,9.561l-.313-2.424a7.9,7.9,0,0,0-.119,7.835c1.372,2.416,4.4,4.2,7.007,4.881a36.583,36.583,0,0,0,4.944.742,12.439,12.439,0,0,0,3.484.044c3-.437,5.922-1.267,8.929-1.645a2.064,2.064,0,0,0,2-2,2.012,2.012,0,0,0-2-2c-2.7.339-5.35.909-8.017,1.438a12.812,12.812,0,0,1-2.484.375,29.945,29.945,0,0,1-3.534-.4,10.255,10.255,0,0,1-6.339-2.808,3.75,3.75,0,0,1-.417-4.446,2.008,2.008,0,0,0-.313-2.423,2.452,2.452,0,0,1-.662-2.161,8.327,8.327,0,0,1,.977-2.553c1.35-2.2-2.109-4.212-3.454-2.019Z"/><path class="d" d="M374.278,219.389c-6.747,1.769-20.142.369-27.067-.619-9.37-1.336-18.047-4.888-22.038-6.139.195-5.092,3.034-16.565,4.344-18.214,6.377.692,11.47,1.073,18.089,1.926,6.635.856,13.744,1.537,17.111,1.778Z"/><path class="a" d="M373.747,217.46a34.018,34.018,0,0,1-8.362.775c-3.357,0-6.712-.209-10.054-.515A97.372,97.372,0,0,1,334.9,213.8c-3.086-.968-6.109-2.121-9.192-3.1l1.469,1.929a52.386,52.386,0,0,1,1.682-9.866c.392-1.617.818-3.228,1.329-4.812.191-.595.388-1.192.629-1.768-.141.338.075-.164.133-.27a4.339,4.339,0,0,1,.3-.489l-1.727.991c6.185.667,12.38,1.2,18.552,1.986,5.532.7,11.086,1.314,16.648,1.718,2.568.187,2.556-3.814,0-4-8.71-.633-17.349-1.913-26.034-2.78-2.221-.222-4.442-.433-6.662-.661-1.057-.108-2.55-.554-3.513.01a3.052,3.052,0,0,0-1.08,1.336,36.93,36.93,0,0,0-2.5,7.99,57.293,57.293,0,0,0-1.75,10.615,2.033,2.033,0,0,0,1.468,1.929c6.639,2.1,13.084,4.587,19.977,5.808a122.581,122.581,0,0,0,19.867,1.862,40.3,40.3,0,0,0,10.325-.913c2.494-.632,1.437-4.491-1.063-3.857Z"/><path class="a" d="M331.716,162.786c-2.135,4.1-3.508,8.562-5.765,12.6a8.794,8.794,0,0,1-3.231,3.487,25.212,25.212,0,0,1-5.364,2.155c-2.445.776-1.4,4.639,1.063,3.858,4.085-1.295,8.155-2.838,10.508-6.657,2.594-4.212,3.966-9.053,6.243-13.428,1.187-2.281-2.264-4.306-3.454-2.019Z"/><path class="e" d="M361.86,51.242a35.731,35.731,0,0,1,29.988,17.925,30.01,30.01,0,0,1,3.919,17.218c-.129.81-.228,1.466-.228,1.466-.375,2.478-.836,5.928-1.234,9.52-2.322,13.565-1.156,21.5-.532,25.353a23.8,23.8,0,0,1,.086,8.282c-.79,4.8-7.647,9.878-17.8,4.775l-3.5-1.757a18.344,18.344,0,0,1-4.909-.608c-2.437-.61-7.606-2.588-6.423-3.924a13.024,13.024,0,0,0,3.011-8.37c.075-3.914-1.148-7.78-2.316-11.565a14.431,14.431,0,0,0,8.162-11.722c.154-2.006-.279-4.3-1.962-5.4a4.313,4.313,0,0,0-3.835-.3,6.755,6.755,0,0,0-2.657,1.94l-1.789-.549c-4.753-1.461-13.234-7.625-15.825-9.548a81.124,81.124,0,0,1-13.086-13l-.2-.258a34.451,34.451,0,0,1,1.685-3.829A28.086,28.086,0,0,1,349.675,52.62a40.688,40.688,0,0,1,6.524-1.093c1.843-.184,3.7-.313,5.563-.312Z"/><path class="a" d="M362.621,96.011c.965-1.235,2.95-3,4.467-1.875,1.274.942,1.152,3.277.832,4.827a12.669,12.669,0,0,1-7.5,9.081,2.012,2.012,0,0,0-.717,2.736,2.053,2.053,0,0,0,2.736.718,16.4,16.4,0,0,0,9.629-13.534c.243-2.826-.653-6.179-3.4-7.51-3.245-1.569-6.8.072-8.875,2.729a2.063,2.063,0,0,0,0,2.828,2.012,2.012,0,0,0,2.828,0Z"/><path class="a" d="M325.6,114.067c2.652.388,5.647.251,7.789-1.553a2.011,2.011,0,0,0,.586-1.414,2.037,2.037,0,0,0-.586-1.415,2.013,2.013,0,0,0-1.414-.585,2.251,2.251,0,0,0-1.414.585c-.033.028-.066.055-.1.081l.4-.313a4.346,4.346,0,0,1-.916.516l.477-.2a7.37,7.37,0,0,1-1.846.484l.532-.071a11.061,11.061,0,0,1-2.781-.014l.532.072-.2-.029a2.193,2.193,0,0,0-1.541.2,2,2,0,0,0-.718,2.736,1.922,1.922,0,0,0,1.2.919Z"/><path class="a" d="M332.823,92.029c-.521,1.387-.5,4.667,2.031,5.128,3.37.222,3.847-3.706,2.853-5.641C336.893,89.932,334.21,89.1,332.823,92.029Z"/><path class="a" d="M327.072,76.178c-.92,4.969-.255,10.066-1.309,15a8.8,8.8,0,0,1-2.428,5c-.8.684-1.811,1.058-2.587,1.8a5.644,5.644,0,0,0-1.758,3.6c-.173,2.473,1.7,3.693,3.114,5.361,1.389,1.641,1.156,3.843,1.422,5.857.629,4.784,1.753,9.945,5.845,13a16.993,16.993,0,0,0,7.6,2.691,25.674,25.674,0,0,0,4.649.333,19.2,19.2,0,0,0,2.154-.2c.224-.032.449-.064.671-.107s.425-.086.636-.138q-.568-.309-.365.068c1.178,2.29,4.631.269,3.454-2.019a3.633,3.633,0,0,0-3.117-2.014c-1.136-.019-2.283.373-3.433.409a22.2,22.2,0,0,1-7.273-1.026,7.891,7.891,0,0,1-4.881-3.925,19.5,19.5,0,0,1-1.8-6.19c-.319-1.912-.175-4.025-.69-5.879a9.346,9.346,0,0,0-1.777-3.369c-.592-.724-1.4-1.274-1.963-2.016-.482-.638-.158-1.178.428-1.687.842-.729,1.9-1.12,2.715-1.923a12.082,12.082,0,0,0,2.967-5.448c1.472-5.278.594-10.787,1.582-16.12.466-2.516-3.388-3.595-3.857-1.064Z"/><path class="a" d="M392.178,98.032a79.261,79.261,0,0,0-.843,21.625c.352,2.976.992,5.9.8,8.918-.172,2.757-.91,4.768-3.414,6.2-3.637,2.075-8.118,1.019-11.658-.717-2.3-1.129-4.332,2.32-2.019,3.454,3.991,1.957,8.588,3.145,12.98,1.864a11.14,11.14,0,0,0,7.133-5.9c1.648-3.71,1.019-8.169.42-12.039-.179-1.16-.236-1.572-.365-2.875q-.222-2.247-.274-4.505a83.017,83.017,0,0,1,1.093-14.96,2.064,2.064,0,0,0-1.4-2.461,2.016,2.016,0,0,0-2.46,1.4Z"/><path class="a" d="M361.762,49.215a44.688,44.688,0,0,0-14.471,2.053,29.483,29.483,0,0,0-10.5,6.49c-6.316,6.028-9.71,14.672-10.384,23.282-.2,2.566,3.8,2.553,4,0,.592-7.564,3.68-15.173,9.213-20.454A24.723,24.723,0,0,1,348.72,55a41.988,41.988,0,0,1,13.042-1.784c2.573-.014,2.579-4.014,0-4Z"/><path class="a" d="M361.86,53.242c16.367.365,32.155,13.974,32.015,30.965a50.193,50.193,0,0,1-.722,6.32q-.584,4.305-1.039,8.624a2.012,2.012,0,0,0,2,2,2.045,2.045,0,0,0,2-2q.406-3.889.924-7.769a64.976,64.976,0,0,0,.823-6.521A32.09,32.09,0,0,0,394.579,70.1a37.026,37.026,0,0,0-18.348-17.6,37.542,37.542,0,0,0-14.371-3.265c-2.575-.057-2.574,3.943,0,4Z"/><path class="a" d="M360.088,110.4c1.192,3.858,2.552,7.945,2.066,12.04a11.19,11.19,0,0,1-1.636,4.681c-.851,1.342-2.022,2.395-1.122,4.091,1.142,2.155,4.427,3.128,6.573,3.8,3.17,1,7,1.517,10.152.208,3.906-1.624,5.836-5.932,5.566-9.994-.17-2.556-4.171-2.575-4,0,.241,3.631-1.691,6.695-5.526,6.751a17.207,17.207,0,0,1-8.752-2.358c-.242-.146-.355-.308-.478-.328-.167-.178-.171-.17-.014.024a1.388,1.388,0,0,1-.047,1.294c.256.043,1.269-1.736,1.395-1.957a15.651,15.651,0,0,0,1.869-6.028c.5-4.522-.869-9.021-2.189-13.291-.758-2.452-4.62-1.406-3.857,1.063Z"/><path class="a" d="M329.516,72.4a74.706,74.706,0,0,0,14.559,14.1c4.654,3.392,9.688,7.194,15.234,8.963,2.458.784,3.51-3.076,1.063-3.857a33.649,33.649,0,0,1-7.517-3.933c-2.307-1.461-4.554-3.019-6.761-4.627a71.239,71.239,0,0,1-13.75-13.477,2.011,2.011,0,0,0-2.828,0,2.05,2.05,0,0,0,0,2.829Z"/><path class="b" d="M176.95,189.467c0-5.293-9.635-7.532-17.232-7.532-8.056,0-18.645,3.056-18.645,8.12,0,5.985,8.977,7.3,17.955,7.3C165.934,197.358,176.95,195.453,176.95,189.467Z"/><path class="a" d="M178.95,189.467c-.19-6.862-9.285-8.654-14.595-9.265-6.721-.773-14.406-.035-20.42,3.278-2.354,1.3-4.59,3.323-4.838,6.152a7.469,7.469,0,0,0,4.063,6.969c3.039,1.748,6.721,2.25,10.157,2.54a53.6,53.6,0,0,0,10.321-.039c5.584-.611,15.136-2.4,15.312-9.635.063-2.575-3.937-2.574-4,0a2.748,2.748,0,0,1-.585,1.67,6.864,6.864,0,0,1-2.4,1.794,23.1,23.1,0,0,1-7.126,2.016,45.458,45.458,0,0,1-7.883.386,37.374,37.374,0,0,1-8.948-1.075c-1.805-.494-4.19-1.374-4.789-3.194a2.227,2.227,0,0,1,.06-1.826,5.294,5.294,0,0,1,1.922-1.862c4.529-2.877,10.667-3.6,15.914-3.416a31.032,31.032,0,0,1,9.532,1.685,9.87,9.87,0,0,1,3.167,1.74,2.851,2.851,0,0,1,1.132,2.082C175.021,192.036,179.021,192.046,178.95,189.467Z"/><path class="b" d="M169.9,184.132a29.006,29.006,0,0,0,2.554-11.915l-.113-.566c.05-2.345-6.744-3.237-12.6-3.383-7.382-.183-13.873.562-14.269,3.248-.155,6.019.066,10.092,1.813,13.684,1.882,3.869,5.735,6.143,10.856,6.143,5.659,0,8.55-2,10.552-5.027A16.832,16.832,0,0,0,169.9,184.132Z"/><path class="a" d="M170.456,172.217a26.306,26.306,0,0,1-1.922,10.074c-.975,2.45-2.461,4.811-4.886,6.015a13.267,13.267,0,0,1-9.323.482,8.9,8.9,0,0,1-5.726-5.566c-1.368-3.712-1.223-7.814-1.128-11.706.062-2.575-3.938-2.574-4,0-.184,7.564.174,16.976,8.2,20.518a17.407,17.407,0,0,0,12.112.51,13.194,13.194,0,0,0,7.5-6.7,29.19,29.19,0,0,0,3.172-13.627c-.044-2.571-4.044-2.58-4,0Z"/><path class="a" d="M159.74,170.268a40.692,40.692,0,0,1,8.312.87,11.053,11.053,0,0,1,2.272.788c.277.176.1-.019.1.06-.013.413.032-1.372-.035-.757-.015.143-.012.51.038-.059a.8.8,0,0,1-.18.3c.177-.057.286-.252,0-.039-.1.075-.191.175-.287.256.394-.33-.13.058-.294.15-.094.053-.815.377-.374.2-.324.131-.655.241-.989.34a18.576,18.576,0,0,1-4.226.713,47.875,47.875,0,0,1-10.355-.4,29.7,29.7,0,0,1-4.4-.967c-.292-.092-.58-.194-.868-.3-.113-.041-.446-.193-.014,0-.127-.057-.258-.111-.381-.178-.181-.1-.361-.218-.545-.308-.435-.212.242.245-.155-.14a2.166,2.166,0,0,1,.195.338c-.008-.046.007,1.075.056.527-.017.188-.083.152.078.027a8.33,8.33,0,0,1,2.276-.846,40.412,40.412,0,0,1,9.783-.576c2.575.058,2.575-3.942,0-4a44.748,44.748,0,0,0-10.847.719c-2.163.491-5,1.649-5.263,4.2-.349,3.42,4.607,4.5,7.071,5.008a49.292,49.292,0,0,0,13.024.909c3.23-.211,7.927-.6,9.938-3.577,1.712-2.535-.309-4.744-2.692-5.679-3.472-1.361-7.548-1.482-11.231-1.584C157.165,166.2,157.167,170.2,159.74,170.268Z"/><path class="b" d="M190.75,215.311c1.67-8.818,5.484-32.057,6.641-37.965a1.006,1.006,0,0,0-1.263-1.153c-8.746,2.5-41.362,16.157-47.379,18.257a1.025,1.025,0,0,0-.695.78c-.716,3.894-1.675,9.887-2.647,16.086-9.02,4.3-24.46,11.682-30.207,14.5a1.014,1.014,0,0,0,.131,1.864c6.568,2.905,25.848,10.618,27.779,10.527,2.384-.112,37.659-16.507,46.8-20.738a.933.933,0,0,0,.544-.65C190.545,216.379,190.643,215.874,190.75,215.311Z"/><path class="a" d="M143.321,237.548c1.638-10.051,3.134-20.124,4.733-30.181q.566-3.558,1.152-7.113.232-1.392.472-2.782.1-.562.2-1.125c.014-.076.133-.448.092-.5.05.071-.935.451-.418.441a5.773,5.773,0,0,0,1.515-.564q.972-.37,1.939-.75,2.585-1.011,5.159-2.046c9.053-3.619,18.081-7.3,27.188-10.786,3.428-1.311,6.865-2.64,10.37-3.734.127-.04.757-.141.814-.246.072-.133-1.138-1.13-1.108-1.158-.05.047-.023.2-.05.262a2.623,2.623,0,0,0-.095.5q-.206,1.1-.4,2.205-.544,3.051-1.067,6.108c-1.629,9.447-3.153,18.916-4.923,28.338a11.837,11.837,0,0,1-.468,2.142l.515-.882a4.247,4.247,0,0,1-1.272.64l-1.812.838-4.057,1.877q-5.052,2.336-10.111,4.654c-7.059,3.233-14.123,6.461-21.249,9.542-2.2.952-4.047,1.786-6.464,2.648-.28.1-.563.189-.846.283-.095.031-.209.041-.3.08-.391.17.516-.034.228-.03-.409,0,.53.156.037.008-.194-.058-.4-.088-.6-.138-.625-.157-1.241-.35-1.855-.546-4.016-1.284-7.956-2.829-11.875-4.379q-3.36-1.329-6.694-2.721-1.4-.585-2.8-1.188-.692-.3-1.382-.6a5.683,5.683,0,0,0-1.547-.689l-.132,1.59.534-.261.829-.4q.874-.424,1.751-.845,1.9-.914,3.8-1.816,4.1-1.951,8.22-3.878c4.8-2.25,9.6-4.481,14.391-6.738,2.328-1.1.3-4.546-2.018-3.454-5.023,2.366-10.059,4.7-15.085,7.064q-4.1,1.922-8.183,3.864-1.87.891-3.738,1.791c-1.221.589-2.9,1.086-3.645,2.294a3.068,3.068,0,0,0,1.008,4.1,21.55,21.55,0,0,0,3.18,1.441q3.915,1.691,7.871,3.283c4.632,1.87,9.292,3.723,14.042,5.276a13.011,13.011,0,0,0,3.889.951,6.418,6.418,0,0,0,2.084-.512c2.875-1.04,5.679-2.3,8.48-3.52,8.349-3.638,16.628-7.441,24.9-11.248q5.092-2.345,10.18-4.7c1.678-.777,3.307-1.283,3.773-3.309.359-1.562.6-3.162.879-4.739,1.693-9.45,3.247-18.924,4.9-28.381.281-1.606.562-3.212.861-4.814a5.528,5.528,0,0,0,.146-2.747,3.1,3.1,0,0,0-3.914-1.9,89.768,89.768,0,0,0-9.442,3.329c-8.859,3.352-17.634,6.923-26.425,10.448-3.2,1.282-6.39,2.577-9.61,3.8-1.685.64-3.372,1.079-3.8,3.113-.377,1.791-.627,3.619-.924,5.424-1.667,10.144-3.195,20.311-4.79,30.467q-.438,2.784-.887,5.568a2.06,2.06,0,0,0,1.4,2.46,2.017,2.017,0,0,0,2.46-1.4Z"/><path class="a" d="M168.333,209.8a4.578,4.578,0,0,0,5.373-2.331c.845-1.605.433-4.039-1.018-4.782a4.979,4.979,0,0,0-6.126,2.235,4,4,0,0,0,.149,3.87A3.467,3.467,0,0,0,168.333,209.8Z"/><path class="c" d="M45.13,94.231C39.2,84.4,37.039,74.985,37.253,66.682c.356-17.936,9.622-27.473,16.824-31.226a42.947,42.947,0,0,1,32.45-3.309C96.167,34.866,108.8,42.389,109.9,58.9"/><path class="b" d="M70.7,71.285s-.336.052-.9.134a5.983,5.983,0,0,0-.659-.4,4.765,4.765,0,0,0-4.241-.2c-1.993.977-2.779,3.43-2.882,5.648a15.953,15.953,0,0,0,5.028,12.159,30.2,30.2,0,0,1-18.3,12.842,23.526,23.526,0,0,1,2.38,10.935c4.164,1.321,11.442,3.838,17.825,6.059,5.06,1.76,9.558,3.333,11.5,3.976.4-1.4.707-2.447.707-2.447a40.635,40.635,0,0,1,3.1-7.773,1.767,1.767,0,0,1,2.257-.972c3.457,1.327,9,1.363,13.166.308l.224-.057a10.387,10.387,0,0,0,5.661-4.44c2.211-3.282,3.732-9.689,4.194-12.565a8.207,8.207,0,0,1,2.226-3.272c1.587-1.382,4-2.331,3.115-5.119a4.985,4.985,0,0,0-2.025-2.519c-4.609-3.168-4.023-10.609-3.613-15.971a37.214,37.214,0,0,0,0-12.3c-.778-1.716-15.812-.56-17.592.58C79.87,61.89,70.758,67.52,70.7,71.285Z"/><path class="f" d="M90.64,30.218A39.762,39.762,0,0,0,81.5,27.594a45.773,45.773,0,0,0-16.592.333A25.952,25.952,0,0,0,52.24,33.816c-1.785,1.437-3.52,4.376-4.622,6.4-.2.365-.291.939-.415,1.158a21.274,21.274,0,0,1-4.519,4.741,22.369,22.369,0,0,0-7.333,11.37,41.627,41.627,0,0,0-.778,16.112,33.43,33.43,0,0,0,5.556,14.555c2.438,3.769,4.889,6.445,6.609,9.63a35.884,35.884,0,0,1,2.01,3.688A30.19,30.19,0,0,0,67.053,88.626a15.953,15.953,0,0,1-5.028-12.159c.1-2.218.889-4.671,2.882-5.648a4.765,4.765,0,0,1,4.241.2,8.114,8.114,0,0,1,3.2,3.4,24.44,24.44,0,0,1,5.555-5.711,30.616,30.616,0,0,1,4.037-2.593c5.513-2.824,11.9-5.616,17.466-9a1.634,1.634,0,0,1,2.371.831l.016.042a1.677,1.677,0,0,0,2.507.79c1.651-1.118,4.017-2.918,5.214-3.683,0,0,.035-.015.095-.047a31.168,31.168,0,0,0-14.04-22.342,31.8,31.8,0,0,0-3.783-1.982Q91.208,30.456,90.64,30.218Z"/><path class="g" d="M107.387,159.058c-.745-.6-1.391-1.108-1.89-1.5-1.112,1.482-5.037,6.147-5.827,7.273l-3.34,4.009c.268,3.336.511,6.673.692,10.014.076,1.42-.185,7.525-.171,8.947l.2,6.007,9.011-5.823a15.548,15.548,0,0,1,2.078-5.647c.959-1.214,2.722-1.731,3.929-2.683,2.437-1.921,4.628-4.068,7-6.019a11.681,11.681,0,0,1,2.451-1.952C119.29,168.838,111.679,162.5,107.387,159.058Z"/><path class="b" d="M119.829,168.961c-.048.107-.1.213-.146.319l-.155.251c-3.358-3.3-9.136-8.073-12.5-10.759l1.794-1.488c9.66-6.508,5.22-11.51,12.056-14.3,2.1-.859,10.828-5.077,14.811-4.259l7.272.729c1.849-2.617,4.2-.44,4.772,2.215l.158-.075c.846-.4,5.173-2.239,5.928-.541,2,4.485-6.845,7.655-6.247,7.391-.142.952-.326,1.893-.541,2.821a3.167,3.167,0,0,1-2.15,2.5l-3.06.875c-.363,1.58-1.665,3.762-3.064,4.106-2.308,3.171-7.011,4.55-12.317,4.933C121.732,164.014,120.887,166.608,119.829,168.961Z"/><path class="b" d="M134.807,182.245a3.192,3.192,0,0,0-1.748-2.026c-1.583-.715-4.392.252-6.052.605-1.868.4-4.5,1.2-6.724,1.667,1.685-.99,2.6-2.986,3.974-4.377,1.278-1.3,2.494-2.513,1.79-4.518a3.544,3.544,0,0,0-3.7-2.146c-1.39.15-2.246,1.343-3.275,2.188-2.377,1.951-4.568,4.1-7,6.019-1.207.952-2.97,1.469-3.929,2.683a15.548,15.548,0,0,0-2.078,5.647l-3.087,2.857c2.622,4.435,5.754,10.84,8.308,16.262,4.115-.162,8.581.446,10,.134,2.515-.551,5.246-.741,7.549-1.838,1.971-.94,3.5-4.325,3.546-4.6.352-2.1,1.25-5.914-.083-7.425,1.238-1.2,2.01-2.025,1.755-3.369a3.067,3.067,0,0,0-2.149-2.591,4.454,4.454,0,0,0,2.719-2.453A3.866,3.866,0,0,0,134.807,182.245Z"/><path class="g" d="M69.3,274.211c-6.518-.778-9.592-1.548-18.666-4.037,0,0-20.914-5.293-28.2-8.145.522-3.3,6.965-20.687,9.6-32.64.834-4.123,1.6-8.765,2.033-12.213,4.772,20.678,19.908,17.994,34.728,12.915,3.253-1.114,6.43-2.358,9.553-3.7-7.877,8.552-14.779,15.967-19.049,20.5a1.575,1.575,0,0,0-.338.864c-.005,2.077.011,6.864-.014,9.876a1.993,1.993,0,0,0,1.994,2.013H86.678c-4.059,5.488-5.791,7.5-8.642,11.119a8.693,8.693,0,0,1-8.741,3.445"/><path class="g" d="M48.7,117.581c-.778,2.945-1.63,5.333-2.222,7.407-4.707,7.8-14.423,14.276-15.955,23.461-.037.218-.072.434-.108.649a91.536,91.536,0,0,0-1.448,25.051c.565,9.694,3.871,35.527,5.347,44.1l.162.586c5.189,18.872,19.9,16.2,34.311,11.259,15.4-5.277,29.1-13.446,43.47-20.9-3.384-7.257-8.217-17.274-11.408-21.63-1.808.677-3.875,1.576-6.009,2.537.056-4.294-.214-8.369-.214-11.185-.547-3.551-1.221-10.608-3.259-13.777-2.452-4.144-12.324-16.7-16.252-21.873-8.053-10.612-26.632-26.5-25.971-25.683"/><path class="b" d="M88.608,125.6c-1.555-1.747-3.561-3.83-4.979-5.46l.22,1.59a66.863,66.863,0,0,1,2.706,11.039l-.323.275c1.039,4.485,4.294,26.075,4.516,29.186l.622,2.91c2.038,3.169,2.712,10.226,3.259,13.777,0,2.816.27,6.891.215,11.185.682-.308,1.358-.609,2.021-.9l-.014-1.4c-.014-1.422.247-7.527.171-8.947-.236-4.364-.579-8.723-.944-13.077-.814-9.694-1.717-19.4-3.009-29.042-.241-1.793-.487-3.59-.83-5.367a6.728,6.728,0,0,0-.511-1.991c-.3-.532-.785-.788-1.1-1.279A23.018,23.018,0,0,0,88.608,125.6Z"/><path class="b" d="M89.566,153.288c-1.1-7.548-2.671-17.384-3.334-20.247l.323-.275a66.863,66.863,0,0,0-2.706-11.039c-.834-.019-1.871-.019-2.76-.056l-.312.873c-3.858-1.252-22.791-8-30.148-10.3-.15,1.151-.672,4.209-.845,5.806,3.316,2.718,18.319,15.966,25.334,25.21,3.715,4.894,12.746,16.388,15.784,21.123l-.154-2.16C90.668,161.1,90.191,157.562,89.566,153.288Z"/><path class="h" d="M86.232,133.041c1.039,4.485,4.294,26.075,4.516,29.186l.245,3.434c-2.215-2.849-6.408-8.95-10.128-14.3-.138-5.881.594-11.887.509-17.174-.154-.207-.291-.4-.291-.4-.668-.953-2.458-2.624-3.025-3.522l-.256-.406c1.158-2.55,2.675-6.115,3.6-8.172.807.026,1.708.028,2.448.045.635,1.815,1.291,7.686,2.383,11.314Z"/><path class="a" d="M32.629,266.47c.368,3.932.807,7.88,1.482,11.773a2.009,2.009,0,0,0,2.46,1.4,2.055,2.055,0,0,0,1.4-2.46c-.094-.541-.178-1.084-.259-1.627q-.084-.57-.165-1.141c-.032-.227-.063-.453-.094-.68s-.014-.109.007.05c-.018-.139-.037-.278-.055-.417q-.45-3.44-.773-6.895a2.044,2.044,0,0,0-2-2,2.022,2.022,0,0,0-2,2Z"/><path class="a" d="M73.916,73.115c-1.836-3.06-5.231-5.549-8.959-4.454-3.39,1-4.772,4.581-4.932,7.806A17.94,17.94,0,0,0,68.87,92.443c2.229,1.3,4.245-2.159,2.019-3.454A13.936,13.936,0,0,1,64.05,78.234c-.129-1.714-.121-4.238,1.393-5.414,1.9-1.475,4.116.809,5.019,2.314,1.322,2.206,4.782.2,3.454-2.019Z"/><path class="a" d="M103.63,75.164c.383,1.59-.089,5.179-2.92,5.342-3.723-.214-3.712-4.582-2.36-6.567C99.457,72.314,102.508,71.771,103.63,75.164Z"/><path class="a" d="M82.59,111.1a39.721,39.721,0,0,0-3.358,8.355,2.019,2.019,0,0,0,1.4,2.46,2.042,2.042,0,0,0,2.46-1.4c.431-1.4.9-2.8,1.429-4.164q.1-.26.2-.517c.044-.11.307-.687.059-.152.13-.28.245-.566.375-.846.27-.586.562-1.162.887-1.72A2,2,0,0,0,82.59,111.1Z"/><path class="a" d="M86.059,113.081c-.119.181-.179-.121-.072.093.063.127.8.273.933.313a15.883,15.883,0,0,0,1.724.4,27.083,27.083,0,0,0,4.393.412,22.639,22.639,0,0,0,8-1.073c5.306-1.994,7.752-7.14,9.268-12.242q.512-1.719.9-3.471a11.977,11.977,0,0,1,.784-3.09c1.121-2.077,3.515-2.837,4.68-4.859,1.43-2.483.2-5.5-1.876-7.177a8.17,8.17,0,0,1-2.232-2.28,9.9,9.9,0,0,1-1.057-3.073c-1.174-5.974.757-12.116.393-18.129-.155-2.558-4.156-2.576-4,0,.332,5.477-1.039,10.867-.624,16.345a16.1,16.1,0,0,0,1.834,6.876,9.511,9.511,0,0,0,2.182,2.593c.733.6,2.134,1.37,2,2.536-.067.593-.744,1.026-1.2,1.378a13.718,13.718,0,0,0-2.923,2.769c-1.419,1.944-1.589,4.215-2.162,6.478-1.095,4.333-2.759,10.265-7.628,11.692a22.837,22.837,0,0,1-8.707.594,28.806,28.806,0,0,1-3.778-.89,3.873,3.873,0,0,0-4.288,1.789c-1.418,2.157,2.044,4.163,3.454,2.019Z"/><path class="a" d="M106.6,93.41l-4.765-.385a3.5,3.5,0,0,0-2.986.639,4.4,4.4,0,0,0-1.035,2.758,10.836,10.836,0,0,0,2.519,7.792,2,2,0,0,0,3.414-1.414,2.3,2.3,0,0,0-.586-1.415c-.225-.277.3.431.043.053-.067-.1-.139-.2-.2-.3-.119-.184-.231-.373-.335-.565a6.267,6.267,0,0,0-.357-.726c.116.278.144.346.086.2-.023-.055-.045-.111-.066-.167-.044-.113-.086-.227-.125-.341a11.7,11.7,0,0,1-.4-1.544q-.051-.325.018.168c-.01-.081-.019-.162-.027-.244-.011-.121-.02-.242-.025-.364a6.784,6.784,0,0,1,.008-.781c0-.06.009-.119.015-.178.025-.218.016-.158-.025.18a1.9,1.9,0,0,0,.067-.345c.027-.114.06-.225.091-.337q.1-.3-.073.163a1.075,1.075,0,0,1-.831.581c-.645.187-.2.1.044.122l.461.037,1,.081,4.074.329a2.008,2.008,0,0,0,2-2,2.05,2.05,0,0,0-2-2Z"/><path class="a" d="M64.611,88.669a28.314,28.314,0,0,1-15.217,10.57c-2.473.7-1.422,4.558,1.064,3.857A32.684,32.684,0,0,0,68.065,90.688a2.015,2.015,0,0,0-.717-2.736,2.044,2.044,0,0,0-2.737.717Z"/><path class="a" d="M75.136,74.119c4.8-5.7,11.879-8.2,18.359-11.484,1.818-.92,3.621-1.87,5.387-2.886.181-.1,1.53-.736,1.537-.908,0,.013-.794.077-.55-.323-.314.515,1.408,1.924,1.71,2.085,1.823.973,3.407.151,4.921-.926,1.34-.954,2.649-1.958,4.027-2.856,2.148-1.4.146-4.866-2.019-3.454-1.378.9-2.687,1.9-4.027,2.856-.176.125-1.15.635-1.186.827q-.224.1.1.009l.273.2q.153.474-.156-.326a2.163,2.163,0,0,0-.46-.7,3.832,3.832,0,0,0-.839-.773c-1.921-1.245-3.637-.148-5.346.835-1.9,1.092-3.837,2.108-5.792,3.091-6.677,3.358-13.827,6.044-18.764,11.9-1.648,1.957,1.167,4.8,2.829,2.829Z"/><path class="a" d="M50.874,116.572a.167.167,0,0,1-.016-.024l.273,1.009v0l-1.469,1.928H48.6c.032.012-.641-.286-.393-.15s-.179-.138-.223-.175c.182.152.37.3.553.449.56.463,1.111.937,1.66,1.413q2.721,2.355,5.367,4.793c4.738,4.343,9.381,8.817,13.7,13.584,3.79,4.185,7.121,8.769,10.552,13.248,3.382,4.416,7.065,8.807,9.893,13.613,1.754,2.982,2.1,6.863,2.571,10.226a90.836,90.836,0,0,1,.57,12.433c.006,2.574,4.006,2.579,4,0a90.271,90.271,0,0,0-.522-12.121,48.292,48.292,0,0,0-2.066-10.171,27.686,27.686,0,0,0-3.78-6.367c-1.911-2.666-3.892-5.281-5.88-7.889-3.677-4.824-7.247-9.808-11.241-14.376a189.071,189.071,0,0,0-14.2-14.307c-2.083-1.923-4.19-3.822-6.337-5.674-1.2-1.032-2.511-2.629-4.223-2.386a2,2,0,0,0-1.468,1.929,2.1,2.1,0,0,0,.289,1.038,2.065,2.065,0,0,0,2.737.718,2.013,2.013,0,0,0,.717-2.736Z"/><path class="a" d="M84.3,133.572c.814,3.559,1.321,7.2,1.893,10.807.73,4.6,1.429,9.2,2.063,13.812.094.688.186,1.367.3,2.311.071.574.142,1.148.186,1.725.192,2.551,4.194,2.572,4,0-.261-3.465-.878-6.927-1.384-10.361-.7-4.735-1.428-9.466-2.233-14.184-.3-1.728-.579-3.464-.97-5.173-.574-2.508-4.431-1.447-3.857,1.063Z"/><path class="a" d="M81.089,123.671c.92.035,1.84.037,2.76.056l-1.928-1.468c.526,1.514.965,3.062,1.373,4.612.264,1.006.51,2.018.73,3.035q.171.792.318,1.59.075.411.141.824c.02.12.038.24.056.36.013.086.072.509.016.086l1.468-1.928c-.731.168-1.463.332-2.2.478q-.5.1-1,.188-.281.05-.563.094c-.052.008-.546.077-.265.041s-.235.025-.237.025c-.13.014-.26.026-.391.037-.236.018-.473.031-.71.033-.2,0-.4-.026-.6-.026-.241,0,.475.129.176.017-.082-.03-.173-.044-.257-.072a2.014,2.014,0,0,0-2.46,1.4,2.048,2.048,0,0,0,1.4,2.461,7.517,7.517,0,0,0,3.264.105,49.578,49.578,0,0,0,4.91-.92,2,2,0,0,0,1.469-1.929A59.279,59.279,0,0,0,85.778,121.2a2.071,2.071,0,0,0-1.929-1.468c-.92-.019-1.84-.021-2.76-.056a2.016,2.016,0,0,0-2,2,2.042,2.042,0,0,0,2,2Z"/><path class="a" d="M79.366,133.782c.115,5.356-.507,10.7-.518,16.05-.006,2.574,3.994,2.578,4,0,.011-5.354.633-10.694.518-16.05-.055-2.57-4.055-2.579-4,0Z"/><path class="a" d="M51.74,118.526c.157-1.928.559-3.831.817-5.747l-2.46,1.4c10.136,3.175,20.052,7.007,30.148,10.3l-1.4-2.461a71.985,71.985,0,0,0-1.035,7.135c-.128,1.051-.257,2.1-.435,3.146-.081.479-.168.96-.289,1.431-.048.188-.1.373-.158.559-.126.412.149-.271-.029.066l2.736-.717c-5.631-2.683-10.878-6.085-16.444-8.889-2.293-1.155-4.321,2.294-2.019,3.454,5.566,2.8,10.813,6.206,16.444,8.889a2.038,2.038,0,0,0,2.737-.718c.98-1.855,1.078-4.2,1.336-6.24.3-2.351.491-4.736,1.014-7.052a2.051,2.051,0,0,0-1.4-2.461c-10.1-3.289-20.013-7.121-30.149-10.3a2.008,2.008,0,0,0-2.46,1.4c-.306,2.269-.774,4.525-.96,6.81-.209,2.565,3.792,2.552,4,0Z"/><path class="a" d="M42.674,146.037A16.948,16.948,0,0,1,59.93,158.092c.7,2.474,4.556,1.423,3.858-1.064a20.967,20.967,0,0,0-21.114-14.991,2.049,2.049,0,0,0-2,2,2.016,2.016,0,0,0,2,2Z"/><path class="a" d="M46.774,119.123a50.27,50.27,0,0,0-2.169,9.979,2.083,2.083,0,0,0,.919,2.259c3.646,1.969,7.481,3.583,11.206,5.391l-.919-2.258c-.262,1.1-.433,2.223-.586,3.346-.176,1.285-.762,3.16.055,4.286a10.872,10.872,0,0,0,1.731,1.665c2.022,1.76,4.126,3.427,6.228,5.089q8.636,6.827,17.508,13.354c2.537,1.873,5.081,3.742,7.687,5.518,2.133,1.454,4.136-2.011,2.019-3.453-9.567-6.52-18.818-13.665-27.79-20.976a44.946,44.946,0,0,1-4.4-3.823l.586,1.414a43.406,43.406,0,0,1,.817-5.357,2.033,2.033,0,0,0-.919-2.258c-3.726-1.809-7.56-3.423-11.206-5.392l.919,2.259a50.27,50.27,0,0,1,2.169-9.979c.872-2.427-2.992-3.472-3.857-1.064Z"/><path class="a" d="M82.215,121.551c1.355,1.549,2.778,3.037,4.165,4.558,1.147,1.258,2.126,2.669,3.271,3.914a4.338,4.338,0,0,1,.751,2.364c.262,1.459.474,2.924.672,4.393q.559,4.146,1.022,8.306c1.241,10.977,2.26,22.013,2.885,33.043.183,3.222-.144,6.451-.13,9.674.011,2.574,4.011,2.579,4,0-.012-2.892.253-5.785.18-8.677-.136-5.435-.738-10.891-1.205-16.305-.495-5.753-1.032-11.5-1.675-17.243q-.495-4.425-1.082-8.841c-.328-2.449-.427-5.25-1.271-7.587a10.524,10.524,0,0,0-1.819-2.6c-.637-.863-1.339-1.677-2.053-2.477-1.609-1.8-3.292-3.535-4.883-5.353-1.7-1.94-4.518.9-2.828,2.829Z"/><path class="a" d="M109.832,159.011a19.981,19.981,0,0,0,7.366-8.2c.442-1,.9-2.32,1.242-3.015a4.9,4.9,0,0,1,1.71-2.184,16.647,16.647,0,0,1,3.122-1.5c1.163-.508,2.33-1,3.514-1.463a41.456,41.456,0,0,1,4.789-1.577,15.026,15.026,0,0,1,2-.4,7.565,7.565,0,0,1,1.582-.019,2.057,2.057,0,0,0,2.46-1.4,2.017,2.017,0,0,0-1.4-2.46,15.642,15.642,0,0,0-7.362.889,72.114,72.114,0,0,0-7.3,2.84l-1.1.479c-.365.16-.023.012-.059.027-.364.155-.734.3-1.093.469a9.079,9.079,0,0,0-2.8,2c-1.384,1.506-1.962,3.387-2.743,5.23a16.305,16.305,0,0,1-5.957,6.824c-2.11,1.447-.112,4.915,2.019,3.454Z"/><path class="a" d="M148.9,143.32c.083-.039.166-.077.25-.114l.152-.066c.255-.111-.591.243-.226.1.291-.117.583-.231.879-.336a11.751,11.751,0,0,1,2.2-.574l-.531.072a4.429,4.429,0,0,1,1.121-.028l-.532-.072c.161.024.306.076.462.115-.527-.132-.457-.167-.235-.076q-.5-.4-.28-.216a1.033,1.033,0,0,1,.074.074c-.276-.2-.334-.437-.162-.184.122.178-.2-.54-.054-.112a3.467,3.467,0,0,1,.145.618l-.071-.532a3.285,3.285,0,0,1,0,.817l.072-.532a3.558,3.558,0,0,1-.111.5c-.025.082-.059.161-.085.243-.051.162.254-.553.069-.172a4.723,4.723,0,0,1-.26.46q-.063.1-.129.192c-.2.288.046-.094.126-.155a3.62,3.62,0,0,0-.364.421q-.193.207-.4.4c-.14.13-.285.256-.432.378-.063.052-.129.1-.192.155.521-.436.24-.184.11-.088a16.823,16.823,0,0,1-3.293,1.868,2,2,0,0,0-.919,1.195,2.045,2.045,0,0,0,.2,1.542,2.02,2.02,0,0,0,1.195.919,2.329,2.329,0,0,0,1.541-.2,17.571,17.571,0,0,0,2.86-1.561,10.186,10.186,0,0,0,3.3-3.306,5.239,5.239,0,0,0,.091-5.16c-1.02-1.7-3.131-1.694-4.839-1.35a16.739,16.739,0,0,0-3.747,1.318,2.009,2.009,0,0,0-.718,2.736,2.054,2.054,0,0,0,2.736.718Z"/><path class="a" d="M143.866,143.739a16.491,16.491,0,0,1,.467-2.719c.106-.409-.306.464.059-.093q.11-.194.234-.378-.171.192.049-.062c.08-.086.469-.385.091-.134.352-.234.2-.012.026-.06a1.794,1.794,0,0,1,.252-.066c-.323.036-.375.051-.156.047-.583-.034-.181.009-.042.024q-.416-.191-.122-.042a1.873,1.873,0,0,1,.171.106q.18.123-.127-.1c.074.063.144.129.212.2.138.139.272.328.081.061a5.318,5.318,0,0,1,.346.544c.08.146.156.3.222.45-.18-.418.037.159.063.248.058.2.1.4.144.594.116.5.021-.347.017.162,0,.614.056,1.23.051,1.845a27.269,27.269,0,0,1-.231,3.359c-.142,1.054-.411,2.158-.625,3.231-.076.384.062,0-.1.3a3.531,3.531,0,0,1-.2.329q.195-.238-.029.015-.226.2-.053.072c.116-.081.095-.066-.066.044a2.707,2.707,0,0,1-.284.158c.235-.094.246-.1.035-.032a2.043,2.043,0,0,0-1.4,2.46,2.022,2.022,0,0,0,2.46,1.4,5.144,5.144,0,0,0,2.68-1.946,7.9,7.9,0,0,0,1.136-3.2,32.058,32.058,0,0,0,.657-7.369,8.186,8.186,0,0,0-2.026-5.494,3.99,3.99,0,0,0-5.176-.737c-2.266,1.6-2.565,4.242-2.818,6.793a2.015,2.015,0,0,0,2,2,2.044,2.044,0,0,0,2-2Z"/><path class="a" d="M135.737,159.6a3.7,3.7,0,0,0,4.714.558,7.779,7.779,0,0,0,2.762-3.482,15.77,15.77,0,0,0,.949-4.39,25.557,25.557,0,0,0,.253-4.722,6.564,6.564,0,0,0-1.612-4.531,4.177,4.177,0,0,0-4.181-.928c-3.408,1.182-3.927,5.075-4.279,8.181a23.948,23.948,0,0,0-.111,4.942,7.345,7.345,0,0,0,1.5,4.372,2.012,2.012,0,0,0,2.828,0,2.046,2.046,0,0,0,0-2.829c-.223-.25.237.451.1.128a1.313,1.313,0,0,0-.118-.21c-.189-.285.151-.011.053.143a1.278,1.278,0,0,0-.094-.269,6.822,6.822,0,0,1-.171-.665c-.018-.088-.035-.176-.051-.265s-.031-.184-.044-.276q.051.4.024.171a35.539,35.539,0,0,1-.065-3.561q.051-.887.154-1.768s.071-.568.03-.257.038-.252.037-.25c.051-.333.107-.665.171-1,.1-.518.2-1.039.355-1.545.019-.063.223-.607.034-.168.042-.1.09-.195.14-.29.072-.136.155-.262.234-.393.233-.387-.272.253.039-.044a2.488,2.488,0,0,1,.287-.28c.028.02-.431.262-.1.082.052-.028.257-.2.315-.183s-.458.123-.154.067c.028,0,.313-.11.327-.086.046.078-.563,0-.151.032a.942.942,0,0,0,.268.01q-.531-.081-.218-.014l.1.029c.386.116-.469-.155-.086-.031.045.014.374.231.067.029-.281-.186,0,.007.047.07.245.3-.129-.321-.059-.078.007.027.165.268.155.272-.029.01-.15-.446-.006.024a6.851,6.851,0,0,1,.2.943c-.012-.079-.038-.412-.008-.02.013.177.03.354.039.532.017.307.023.614.022.921,0,.7-.043,1.389-.1,2.08-.052.6-.124,1.2-.2,1.8-.067.547.042-.283,0,.045-.019.13-.036.26-.054.39-.039.278-.074.558-.118.836a5.5,5.5,0,0,1-.166.74c-.034.112-.075.22-.11.331-.152.49.135-.238-.046.13-.134.272-.267.543-.424.8-.052.087-.106.173-.161.257-.067.1-.482.58-.129.194-.191.208-.386.4-.588.6.048-.047.373-.227.093-.079-.125.066-.644.319-.06.067a1.1,1.1,0,0,1-.22.059c.349-.036.415-.05.2-.042.328.058.413.071.255.037s-.347-.164.093.058c-.176-.11-.149-.08.079.09a2.545,2.545,0,0,1-.214-.2,2,2,0,0,0-2.828,2.829Z"/><path class="a" d="M122.924,157.983c.351-.2.7-.4,1.066-.583.13-.066.262-.131.4-.194.1-.048.68-.352.177-.089a7.622,7.622,0,0,1,1.894-.6c.154-.032.308-.058.462-.086q.331-.048-.134.018c.089-.01.178-.018.267-.025A8.3,8.3,0,0,1,128,156.4c.185.006.367.024.551.036.413.028-.417-.083.029,0,.389.075.772.155,1.154.264a2,2,0,1,0,1.063-3.857,11.185,11.185,0,0,0-5.269-.216,15.307,15.307,0,0,0-4.62,1.9,2,2,0,0,0,2.019,3.454Z"/><path class="a" d="M132.97,156.691l-.013-.093.071.531a12.839,12.839,0,0,1,.021-3.335l-.072.532a7.706,7.706,0,0,1,.387-1.859l-.2.477a1.421,1.421,0,0,1,.168-.277l-.313.405a1.755,1.755,0,0,1,.277-.268l-.405.312a2.488,2.488,0,0,1,.494-.281l-.477.2a3.5,3.5,0,0,1,.811-.218l-.532.072a3.88,3.88,0,0,1,.975-.007l-.532-.072a3.035,3.035,0,0,1,.732.19l-.478-.2a2.057,2.057,0,0,1,.426.247l-.4-.313a1.6,1.6,0,0,1,.229.229l-.313-.405a1.493,1.493,0,0,1,.122.193,2.016,2.016,0,0,0,2.736.717,2.045,2.045,0,0,0,.718-2.736c-.927-1.763-3.262-2.11-5.024-1.719a4.125,4.125,0,0,0-2.183,1.23,3.7,3.7,0,0,0-.815,1.63,19.031,19.031,0,0,0-.333,1.971,14.505,14.505,0,0,0,.071,3.91,2,2,0,0,0,.919,1.2,2.044,2.044,0,0,0,1.541.2,2.022,2.022,0,0,0,1.2-.919l.2-.478a2.018,2.018,0,0,0,0-1.063Z"/><path class="a" d="M137.182,157.53c-2.344,3.327-7.412,3.78-11.218,4.189a8.735,8.735,0,0,0-5.674,2.5,14.842,14.842,0,0,0-2.334,4.056,2.06,2.06,0,0,0,.718,2.737,2.017,2.017,0,0,0,2.736-.718c.3-.657.574-1.329.9-1.974a10.73,10.73,0,0,1,.548-.947c.311-.477-.244.25.133-.185.124-.143.254-.281.391-.411a3.883,3.883,0,0,1,1.706-.869,26.032,26.032,0,0,1,3.428-.436c4.579-.581,9.334-1.968,12.117-5.918a2.017,2.017,0,0,0-.718-2.736,2.042,2.042,0,0,0-2.736.717Z"/><path class="a" d="M131.242,148.473q1.018-.5,2.064-.94l-.478.2a15.757,15.757,0,0,1,3.9-1.273l-.531.072a2.937,2.937,0,0,1,.363-.024,2,2,0,0,0,0-4,10.319,10.319,0,0,0-3.51.853c-1.3.489-2.579,1.044-3.826,1.656a2.013,2.013,0,0,0-.717,2.737,2.05,2.05,0,0,0,2.736.717Z"/><path class="a" d="M101.4,165.839c.07-.1.143-.195.215-.292-.111.15-.152.194-.015.019.238-.3.479-.6.72-.9.575-.714,1.156-1.423,1.736-2.133,1.071-1.31,2.153-2.612,3.174-3.961l-3.142.4c2.818,2.2,5.578,4.469,8.292,6.79a56.728,56.728,0,0,1,7.728,7.33,2.012,2.012,0,0,0,2.829,0,2.049,2.049,0,0,0,0-2.828,56.736,56.736,0,0,0-7.729-7.33c-2.714-2.321-5.474-4.595-8.291-6.79a2.051,2.051,0,0,0-3.141.405c-.292.385.287-.362-.076.1l-.243.306q-.393.495-.793.985c-.592.731-1.189,1.459-1.784,2.188-.993,1.215-2.019,2.417-2.934,3.692a2.016,2.016,0,0,0,.717,2.736,2.044,2.044,0,0,0,2.737-.717Z"/><path class="a" d="M107.989,188.519a16.6,16.6,0,0,1,1.249-4.13,4.785,4.785,0,0,1,2.413-2.11c2.93-1.628,5.317-4.231,7.848-6.4.62-.531,1.245-1.051,1.844-1.607a2.641,2.641,0,0,1,1.247-.849,1.483,1.483,0,0,1,1.657,1.111c.13,1.055-1.219,1.924-1.821,2.618a27.78,27.78,0,0,1-3.027,3.561,2.013,2.013,0,0,0,0,2.828,2.044,2.044,0,0,0,2.828,0,21.8,21.8,0,0,0,2.827-3.322,17.422,17.422,0,0,0,2.684-3.334,5.256,5.256,0,0,0-3.649-7.29c-3.416-.773-5.645,1.908-7.977,3.937-1.3,1.131-2.569,2.3-3.881,3.411a23.352,23.352,0,0,1-3.479,2.37c-2.933,1.723-4.008,4.951-4.62,8.14a2.054,2.054,0,0,0,1.4,2.46,2.018,2.018,0,0,0,2.46-1.4Z"/><path class="a" d="M121.222,184.331c2.119-.473,4.2-1.106,6.317-1.578.883-.2,1.753-.444,2.639-.624.241-.049.483-.095.727-.131.144-.022.137-.021-.019,0,.134-.014.268-.024.4-.032.226-.011.449-.008.674,0,.151.012.124.006-.081-.019a3.269,3.269,0,0,1,.336.078q.315.108,0,0l.161.091c.194.13.2.131.032,0a3.028,3.028,0,0,1,.251.243c.285.275-.049-.186.095.149a3.337,3.337,0,0,1,.157.3q-.138-.322-.024,0c.013.072.1.613.059.14.02.23,0,.456.009.685-.016-.4,0,0-.038.142-.028.11-.061.219-.1.326q.159-.35-.028.042c-.105.188-.206.373-.328.551.173-.252-.259.264-.312.32-.263.285.2-.082-.149.119-.2.112-.387.224-.589.326.305-.155.027-.012-.134.044-.179.062-.36.115-.543.166-.38.106-.765.192-1.148.285a2,2,0,1,0,1.064,3.857,8.714,8.714,0,0,0,4.524-2.164,6.23,6.23,0,0,0,1.613-5.737,5.148,5.148,0,0,0-4.29-3.888c-1.93-.257-3.841.356-5.7.789-2.222.516-4.415,1.153-6.641,1.65a2,2,0,0,0,1.063,3.858Z"/><path class="a" d="M131.846,189.4c-.884-.1-.251-.158-.155.1.1.274.388.517.4.831.035.666-.776,1.2-1.212,1.629a2.055,2.055,0,0,0,0,2.828,7.047,7.047,0,0,1,.046,2.547,28.18,28.18,0,0,1-.484,2.956c-.012.057-.121.355-.022.077.109-.3-.122.239-.157.308-.2.4-.424.791-.665,1.169a4.652,4.652,0,0,1-2,1.934,19.514,19.514,0,0,1-4.347,1.068c-.7.123-1.423.223-2.12.387-1.023.24.2.032-.366.076-.228.018-.456.021-.684.022-2.97.02-5.924-.328-8.9-.22-2.567.093-2.579,4.093,0,4,3.241-.117,6.551.482,9.774.181a45.358,45.358,0,0,0,5.1-.915,11.264,11.264,0,0,0,4.856-1.974,10.41,10.41,0,0,0,3.531-5.832c.514-2.869,1.217-6.131-.731-8.612v2.828c1.6-1.563,2.842-3.322,2.19-5.655a4.889,4.889,0,0,0-4.055-3.729,2.011,2.011,0,0,0-2,2,2.048,2.048,0,0,0,2,2Z"/><path class="a" d="M46.774,117.049c-.592,2.212-1.312,4.381-1.975,6.571-.5,1.643-1.923,3.146-3.006,4.452-2.519,3.037-5.3,5.845-7.737,8.954-2.408,3.081-4.581,6.494-5.364,10.384a101.463,101.463,0,0,0-1.827,13.6,128.429,128.429,0,0,0,.762,20.885c.683,6.792,1.507,13.57,2.388,20.339.774,5.946,1.479,11.937,2.607,17.829.483,2.526,4.339,1.457,3.857-1.063-.924-4.829-1.533-9.731-2.18-14.6-.894-6.736-1.724-13.481-2.438-20.239a157.924,157.924,0,0,1-1.14-19.657,88.18,88.18,0,0,1,1.329-13.2,26.752,26.752,0,0,1,1.38-5.76,24.172,24.172,0,0,1,2.8-4.8c2.52-3.5,5.642-6.522,8.391-9.836,1.341-1.618,3.161-3.525,3.836-5.546.8-2.385,1.524-4.814,2.174-7.242.668-2.489-3.19-3.551-3.857-1.064Z"/><path class="a" d="M62.3,166.058a88.826,88.826,0,0,1,.576,19.621,154.717,154.717,0,0,0-.916,16.4c.025,2.572,4.025,2.579,4,0a153.664,153.664,0,0,1,.916-16.4,88.585,88.585,0,0,0-.576-19.621,2.063,2.063,0,0,0-2-2,2.013,2.013,0,0,0-2,2Z"/><path class="a" d="M62.569,205.491c6.486-2.223,12.823-4.892,19.156-7.51,3.105-1.283,6.21-2.56,9.271-3.946,3.441-1.558,6.853-3.207,10.388-4.544l-2.259-.919a73.886,73.886,0,0,1,5.631,9.727c2.014,3.924,3.912,7.906,5.777,11.9l.717-2.736c-12.878,6.69-25.463,14.114-39.067,19.279a83.187,83.187,0,0,1-15.216,4.5c-3.841.664-8.09.813-11.683-.764-4.972-2.182-7.479-7.2-8.876-12.181-.7-2.474-4.555-1.423-3.857,1.064,1.474,5.252,4.036,10.369,8.7,13.459,3.833,2.539,8.613,3.152,13.109,2.764a63.175,63.175,0,0,0,14.96-3.567,171.451,171.451,0,0,0,21.171-9.113c7.67-3.848,15.163-8.033,22.777-11.988a2.047,2.047,0,0,0,.718-2.737c-1.865-4-3.763-7.978-5.777-11.9a74.063,74.063,0,0,0-5.631-9.727,2.05,2.05,0,0,0-2.258-.919c-6.67,2.523-13.068,5.765-19.659,8.49-6.334,2.618-12.67,5.287-19.156,7.51-2.421.829-1.381,4.7,1.063,3.857Z"/><path class="a" d="M69.3,272.211c-6.519-.785-12.732-2.579-19.075-4.206-5.816-1.491-11.618-3.042-17.383-4.72-3.316-.966-6.654-1.933-9.876-3.185l1.4,2.46a35.431,35.431,0,0,1,1.311-4.69c.845-2.689,1.727-5.367,2.589-8.051,2.041-6.355,4.07-12.741,5.555-19.253.975-4.275,1.629-8.648,2.2-12.993a2.011,2.011,0,0,0-2-2,2.052,2.052,0,0,0-2,2,138.9,138.9,0,0,1-4.349,20.6c-1.731,5.959-3.7,11.844-5.579,17.757A41.2,41.2,0,0,0,20.5,261.5a2.078,2.078,0,0,0,1.4,2.46,187.088,187.088,0,0,0,19.183,5.781c5.2,1.4,10.4,2.8,15.616,4.135a97.393,97.393,0,0,0,12.6,2.338,2.011,2.011,0,0,0,2-2,2.047,2.047,0,0,0-2-2Z"/><path class="i" d="M111.8,56.927c-.815-10.842-6.771-21.343-16.44-26.669-9.7-5.344-21.177-6.364-31.9-4.063a28.258,28.258,0,0,0-12.887,6.422,21.246,21.246,0,0,0-4.811,6.891,6.667,6.667,0,0,1-1.338,2.226,25.248,25.248,0,0,1-2.949,2.808c-9.374,7.628-10.7,20.919-8.365,32.071,1.386,6.62,4.779,12.028,8.742,17.408,3.94,5.349,7.332,11.269,7.284,18.089-.018,2.574,3.982,2.577,4,0,.042-5.914-2.123-11.018-5.063-16.041-2.888-4.935-6.914-9.075-9.233-14.37A36.166,36.166,0,0,1,36.15,66.073c.2-5.462,1.3-11.047,4.83-15.381a59.774,59.774,0,0,1,5-4.8,23.8,23.8,0,0,0,2.406-2.72,24.624,24.624,0,0,0,1.469-2.865A17.816,17.816,0,0,1,55.1,34.142a24.019,24.019,0,0,1,6.142-3.229,41.939,41.939,0,0,1,27.211.582A28.955,28.955,0,0,1,107.8,56.927c.192,2.551,4.194,2.572,4,0Z"/><path class="a" d="M331.394,216.874c8.035,8.92,16.076,17.834,24.22,26.654q1.1,1.19,2.2,2.375a16.754,16.754,0,0,1,1.937,2.073c.092.143.1-.046.086.493-.01.415,0,.831,0,1.245q0,1.767,0,3.533c0,.8.366,4.116-.2,4.4a4.157,4.157,0,0,1-1.336,0H62.367c-.233,0-1.236.145-1.393,0-.238-.22-.021-1.924-.02-2.31q0-2.058,0-4.116a12.8,12.8,0,0,1,0-3.19c-.026.086.314-.319.431-.443l1.092-1.164Q65,243.741,67.5,241.049q6.055-6.5,12.072-13.04c1.742-1.891-1.08-4.727-2.828-2.828q-6.334,6.874-12.7,13.717-2.5,2.684-5.009,5.357a7.578,7.578,0,0,0-1.832,2.358,9.019,9.019,0,0,0-.246,3.142c0,2.614-.144,5.27-.013,7.88a4.115,4.115,0,0,0,4.22,4.013c1.087.035,2.181,0,3.268,0H356.511c1.017,0,2.039.031,3.055,0a4.092,4.092,0,0,0,4.228-3.605,60.122,60.122,0,0,0,.041-6.833c0-1.914.381-4.159-.943-5.727-1.355-1.6-2.888-3.09-4.313-4.633q-5.646-6.113-11.229-12.281-6.581-7.247-13.128-14.521c-1.726-1.917-4.548.919-2.828,2.828Z"/></svg>