<svg width="20" height="20" viewBox="0 0 20 20" fill="none" xmlns="http://www.w3.org/2000/svg">
<path fill-rule="evenodd" clip-rule="evenodd" d="M10 0C4.48 0 0 4.48 0 10C0 15.52 4.48 20 10 20C15.52 20 20 15.52 20 10C20 4.48 15.52 0 10 0ZM10 18C5.59 18 2 14.41 2 10C2 5.59 5.59 2 10 2C14.41 2 18 5.59 18 10C18 14.41 14.41 18 10 18ZM7.76389 8.09296C7.32388 8.06796 7.01589 7.68696 7.03988 7.24596C7.17488 5.64096 8.31288 4.53896 9.82689 4.34496C11.6279 4.11396 13.2789 5.11696 13.5249 7.02996C13.7229 8.57596 12.8419 9.79096 11.6479 10.333C11.0189 10.608 10.6549 10.93 10.7509 11.679L10.7629 11.775C10.8179 12.205 10.5009 12.635 10.0379 12.694C9.59189 12.751 9.19188 12.414 9.13688 11.984L9.12489 11.888C8.91805 10.2749 9.52052 9.86755 10.4121 9.26469L10.4121 9.26468C10.7189 9.05727 11.0599 8.82671 11.4139 8.51596C11.7919 8.17596 11.9529 7.66896 11.8979 7.23896C11.7839 6.34596 10.9109 5.85896 10.0349 5.97096C9.33389 6.06096 8.76688 6.57096 8.63788 7.33296C8.56788 7.79596 8.23888 8.12996 7.76389 8.09296ZM11.1211 14.4971C11.0481 13.8741 10.4821 13.4721 9.86012 13.5461C9.25412 13.6181 8.78212 14.1431 8.85512 14.7661C8.92912 15.3881 9.50912 15.7721 10.1151 15.7001C10.7371 15.6261 11.1951 15.1191 11.1211 14.4971Z" fill="black"/>
</svg>
