<svg fill="none" height="24" viewBox="0 0 24 24" width="24" xmlns="http://www.w3.org/2000/svg"><path clip-rule="evenodd" d="m7.375 3.58333c-.437 0-.79167.35467-.79167.79167v14.25c0 .437.35467.7917.79167.7917h9.5c.437 0 .7917-.3547.7917-.7917v-9.5h-3.1667c-1.3118 0-2.375-1.06321-2.375-2.375v-3.16667zm6.3333 1.11942 2.8389 2.83892h-2.0472c-.437 0-.7917-.35467-.7917-.79167zm-8.7083-.32775c0-1.31179 1.06321-2.375 2.375-2.375h5.5417c.2098 0 .4116.08312.5597.23196l5.5416 5.54166c.1489.14805.232.34992.232.55971v10.29167c0 1.3118-1.0632 2.375-2.375 2.375h-9.5c-1.31179 0-2.375-1.0632-2.375-2.375zm3.95833 8.7083c0-.437.35467-.7916.79167-.7916h2.375c.437 0 .7917.3546.7917.7916s-.3547.7917-.7917.7917h-2.375c-.437 0-.79167-.3547-.79167-.7917zm0 3.1667c0-.437.35467-.7917.79167-.7917h4.75c.437 0 .7917.3547.7917.7917s-.3547.7917-.7917.7917h-4.75c-.437 0-.79167-.3547-.79167-.7917z" fill="#131313" fill-rule="evenodd"/></svg>