<svg width="188" height="68" viewBox="0 0 188 68" fill="none" xmlns="http://www.w3.org/2000/svg">
<path d="M37.832 54.44C31.688 54.44 28.328 50.072 27.752 41.336H15.368C14.408 43.544 13.592 45.608 12.92 47.528L11.048 53H0.968L23.648 5.48H39.128L42.152 40.472C42.632 45.512 43.832 48.776 45.752 50.264C44.36 53.048 41.72 54.44 37.832 54.44ZM17.6 36.08H27.536L26.672 17.576V15.632L21.56 26.936L17.6 36.08ZM79.1184 40.832C80.3184 41.648 80.9184 42.968 80.9184 44.792C80.9184 46.568 80.4624 48.032 79.5504 49.184C78.6384 50.336 77.4384 51.296 75.9504 52.064C72.8784 53.648 69.6864 54.44 66.3744 54.44C63.0624 54.44 60.4224 54.08 58.4544 53.36C56.5344 52.64 54.9264 51.608 53.6304 50.264C51.0864 47.72 49.8144 44.12 49.8144 39.464C49.8144 32.216 51.7824 26.384 55.7184 21.968C59.9424 17.216 65.7264 14.84 73.0704 14.84C77.6304 14.84 81.0384 15.8 83.2944 17.72C84.9744 19.16 85.8144 21.056 85.8144 23.408C85.8144 31.856 78.5184 36.08 63.9264 36.08C63.7344 37.328 63.6384 38.48 63.6384 39.536C63.6384 41.744 64.1184 43.28 65.0784 44.144C66.0864 44.96 67.5024 45.368 69.3264 45.368C71.1504 45.368 73.0224 44.96 74.9424 44.144C76.9104 43.28 78.3024 42.176 79.1184 40.832ZM64.4304 32.984C67.8384 32.984 70.5264 31.928 72.4944 29.816C74.4624 27.8 75.4464 25.184 75.4464 21.968C75.4464 20.864 75.2304 20.024 74.7984 19.448C74.4144 18.824 73.8144 18.512 72.9984 18.512C72.1824 18.512 71.4144 18.68 70.6944 19.016C70.0224 19.304 69.3264 19.976 68.6064 21.032C66.8304 23.432 65.4384 27.416 64.4304 32.984ZM93.3907 22.904C95.0227 20.6 97.0627 18.68 99.5107 17.144C102.007 15.608 104.767 14.84 107.791 14.84C110.815 14.84 113.047 15.32 114.487 16.28L128.599 14.84L123.703 42.488C122.023 51.896 119.407 58.448 115.855 62.144C112.447 65.648 107.431 67.4 100.807 67.4C95.7667 67.4 91.8067 66.608 88.9267 65.024C86.0467 63.44 84.6067 61.328 84.6067 58.688C84.6067 56.72 85.3507 55.16 86.8387 54.008C88.3267 52.904 90.2227 52.352 92.5267 52.352C94.5427 52.352 96.3187 52.808 97.8547 53.72C98.7667 54.2 99.4387 54.776 99.8707 55.448C98.7667 56.408 98.2147 57.68 98.2147 59.264C98.2147 61.328 99.1747 62.36 101.095 62.36C104.311 62.36 106.831 58.568 108.655 50.984C109.183 48.92 109.663 46.856 110.095 44.792C107.935 47.432 104.407 48.752 99.5107 48.752C96.1027 48.752 93.4147 47.936 91.4467 46.304C89.4787 44.672 88.4947 41.936 88.4947 38.096C88.4947 35.696 88.9027 33.152 89.7187 30.464C90.5347 27.728 91.7587 25.208 93.3907 22.904ZM102.751 38.312C102.751 41.576 103.591 43.208 105.271 43.208C106.423 43.208 107.551 42.584 108.655 41.336C109.519 40.328 110.119 39.08 110.455 37.592L114.127 19.088C113.887 19.04 113.647 18.968 113.407 18.872C112.927 18.68 112.375 18.584 111.751 18.584C108.823 18.584 106.495 20.984 104.767 25.784C103.423 29.528 102.751 33.704 102.751 38.312ZM148.66 49.04C147.172 52.64 144.052 54.44 139.3 54.44C136.852 54.44 134.86 53.6 133.324 51.92C132.028 50.432 131.38 48.944 131.38 47.456C131.38 43.568 132.268 37.832 134.044 30.248L136.708 16.28L151.324 14.84L146.932 37.592C146.116 41.144 145.708 43.544 145.708 44.792C145.708 47.528 146.692 48.944 148.66 49.04ZM138.004 6.272C138.004 4.4 138.772 2.96 140.308 1.952C141.892 0.943998 143.812 0.439999 146.068 0.439999C148.324 0.439999 150.124 0.943998 151.468 1.952C152.86 2.96 153.556 4.4 153.556 6.272C153.556 8.144 152.788 9.56 151.252 10.52C149.764 11.48 147.892 11.96 145.636 11.96C143.38 11.96 141.532 11.48 140.092 10.52C138.7 9.56 138.004 8.144 138.004 6.272ZM176.322 27.728C176.994 25.952 177.33 24.296 177.33 22.76C177.33 19.928 176.178 18.512 173.874 18.512C172.674 18.512 171.57 19.064 170.562 20.168C169.602 21.224 169.122 22.424 169.122 23.768C169.122 24.728 169.506 25.592 170.274 26.36C171.378 27.416 173.346 28.808 176.178 30.536C179.01 32.264 180.954 33.848 182.01 35.288C183.114 36.68 183.666 38.36 183.666 40.328C183.666 42.248 183.186 44.096 182.226 45.872C181.314 47.648 180.018 49.16 178.338 50.408C174.738 53.096 170.058 54.44 164.298 54.44C161.178 54.44 158.418 53.624 156.018 51.992C153.618 50.408 152.418 48.68 152.418 46.808C152.418 44.936 153.09 43.448 154.434 42.344C155.826 41.24 157.53 40.688 159.546 40.688C161.562 40.688 163.194 41.072 164.442 41.84C163.818 43.424 163.506 44.744 163.506 45.8C163.506 48.968 164.85 50.552 167.538 50.552C168.69 50.552 169.65 50.192 170.418 49.472C171.186 48.752 171.57 47.768 171.57 46.52C171.57 44.072 169.506 41.552 165.378 38.96C162.018 36.752 159.954 35.216 159.186 34.352C157.89 32.816 157.242 31.088 157.242 29.168C157.242 27.248 157.698 25.376 158.61 23.552C159.522 21.728 160.818 20.168 162.498 18.872C166.002 16.184 170.802 14.84 176.898 14.84C180.018 14.84 182.49 15.464 184.314 16.712C186.186 17.96 187.122 19.64 187.122 21.752C187.122 23.864 186.474 25.52 185.178 26.72C183.93 27.92 182.154 28.52 179.85 28.52C178.266 28.52 177.09 28.256 176.322 27.728Z" fill="#3780A9"/>
</svg>
